<svg xmlns="http://www.w3.org/2000/svg" version="1.1" xmlns:xlink="http://www.w3.org/1999/xlink" xmlns:svgjs="http://svgjs.dev/svgjs" width="1500" height="1500" viewBox="0 0 1500 1500"><rect width="1500" height="1500" fill="#000000"></rect><g transform="matrix(0.6666666666666666,0,0,0.6666666666666666,248.44244080996884,189.33333333333348)"><svg viewBox="0 0 321 360" data-background-color="#ffffff" preserveAspectRatio="xMidYMid meet" height="1682" width="1500" xmlns="http://www.w3.org/2000/svg" xmlns:xlink="http://www.w3.org/1999/xlink"><g id="tight-bounds" transform="matrix(1,0,0,1,0.5000234999999975,0)"><svg viewBox="0 0 320 360" height="360" width="320"><g><svg></svg></g><g><svg viewBox="0 0 320 360" height="360" width="320"><g><path transform="translate(-74.99272,-51.79039) scale(4.65793,4.65793)" d="M20.6 59.9l0.8 1-0.4-1.3c-0.1-0.6-0.8 0.1-0.4 0.3M21.5 59.3c0.3 0.5 0.6 1 0.6 1.5 0 0.7 0.6 1 1.1 1.2-0.7-0.8-1.1-3-1.7-2.7M59.9 16.9c1.7 0 3.3-0.2 5.1 0.2 4.4 1.1 8.1 3.3 10.6 6.4l7 11.2c0.3 2.8 0.9 5.9 0.8 9.3 0.7 0 0.6-1 1.4-1.2-0.8 2-1.2 4.5-1.4 7.4-0.5-1.6 0-4 0.1-5.3-0.7 1.1-1.1 0.3-1.1-0.2 0.1-0.8-0.3-0.7-0.6-1-1.1-1-1.8-2.1-2.6-3.8 0.5-1.3 0.6-3.2-1-4.2-0.5-0.3-1.1-0.8-1.4-1.6-0.4-1.1-1.1-2.4-0.9-4.1 0.1-0.5-1.5 1.1-2.4 0.4-3.9-2.7-7.8-5.8-12.5-8.4-2.5 0-4.3-0.9-5.2-2-0.8-1-0.2-2.3 1-2.4 0.7 0 1.5-0.2 2.1 0.2 0.1-0.4 0.5-0.9 1-0.9M50 14.6l0.2 0.1c1 0.2 1.5 1.6 2.6 1.1 0 0.7 0.1 1.4-0.1 1.9-0.3 0.8-1.2 0.8-1.9 0.8-6.7-0.4-10.6 2.4-14.7 4.8-1.1 0.7-2.3 1.2-3.2 2.1-4.3 4-9 7.7-10.1 15.1l-0.9 8.2c-0.1 0.9-1.1 1.8-0.9 2.9l0.7 4.9c-0.7-0.7-1.1 0.2-0.9 0.6 0.1 0.3 0.5 1.3 1.1 0.4 0.8 1.5 1.6 4.4 2.7 5.7 3.4 4 7.8 7.6 11.4 11.2 0.9-0.2 1.6-0.2 1.8-0.8 0.3 0.6-0.3 1.2-0.8 1.3 1.6 1 3.4 1.9 5.8 2.1 3.1 0.2 6 0.7 8.7 1.4 1.4-0.4 2.8-0.6 4.3-0.7 0.5 0 0.8-0.8 1.4-1l0.1-1c0.6 0.9 0.5-0.3 0.1-0.9 0.7 0.6 0.9 1.1 1.2 1.5 0-0.3 0.8-1.4 0.8-0.1l0.2-1.3c0.3-0.2 0.4 1.1 0.7 0.2 0.3-0.9 0.9-0.2 1.5-0.5-0.2 0.4-0.1 1.2 0.6 0.7l0.8-0.7c0.5 1.2 1.3 0.7 1.7 0.5 4.4-2.8 8.8-6.1 13-9.4l-0.1 1.3 0.5-1.6c0.5 0.5 0.9 0.1 1.1-0.2 0.6-1 1.4-2 2.7-2.9-1.6 4.3-3.5 7.7-5.9 10.5l-1 1.2c0 0.7-0.2 1.6-1 1.7-0.4 0.1-1.2-0.2-1.8 0.4-0.3 0.4 0.7 1.2-0.1 0.6-0.7-0.5-1.4 0-2.2 0.2-0.6 0.2 0.4 0.8 0.6 1.2 0.2 0.4 0.4 0.8 0.3 1.3l-1.1-1.2c-1.3 0.7-2.1 2-3.2 3-0.5 0.4-0.3 1.1-0.3 1.7-0.7 0-1.5-0.2-1.9 0.2-0.3 0.4-0.2 1-0.2 1.6-1-0.1-1.1-1.6-2-1.3-0.9 0.2-1.9 0.3-2.7 0.8 0.6 1.2-1 0.5-0.8 0.7-1.5-0.9-2.8-1.6-4.4-1-3.4-1.1-7.6-0.6-10.7-0.2 0-0.5 0.1-1-0.1-1.1-0.2 0.5-0.8 0.3-0.7 0.3-1.9-1.3-3.8-2.1-5.8-3.2-1.8 0.2-3.5-0.7-4-1.2-1.4-1.3-3-0.6-4.3-0.9-2.8-0.7-3.8-3.6-4.1-5.6-0.2-1-1-1.4-1.3-1.3-1.3-4.2-3.3-8-4.9-11.9-0.4-1-0.3-2-0.3-3.1 0.5 0.2 1 0.1 0.9-0.6-0.5-3.3-1.7-5.8-3-8.2 0.7-3.4 0.8-7.4 2.4-10.4 1.4-2.7 4-4.1 5.8-6.4 0.6-0.8 0.6-1.9 1.2-2.6 2-2 4-4.1 6.2-5.9 1-0.8 2.2 0 3.7-0.3 0.5-1.8 2.5-3.4 4.4-2.9 0.8 0.2 2.4-1.9 2.9-2.1 0.8-0.3 0.4 0.8 0.4 1.5 1.9-1.5 4.5-2.3 6.9-3.2" fill="#ffffff" fill-rule="nonzero" stroke="none" stroke-width="1" stroke-linecap="butt" stroke-linejoin="miter" stroke-miterlimit="10" stroke-dasharray="" stroke-dashoffset="0" font-family="none" font-weight="none" font-size="none" text-anchor="none" style="mix-blend-mode: normal" data-fill-palette-color="tertiary"></path></g><g transform="matrix(1,0,0,1,67.21004030359956,90)"><svg viewBox="0 0 185.5799193928009 180" height="180" width="185.5799193928009"><g><svg viewBox="0 0 185.5799193928009 180" height="180" width="185.5799193928009"><g><svg viewBox="0 0 192 186.22704500075707" height="180" width="185.5799193928009"><g transform="matrix(1,0,0,1,0,110.67017763587957)"><svg viewBox="0 0 192 75.5568673648775" height="75.5568673648775" width="192"><g id="textblocktransform"><svg viewBox="0 0 192 75.5568673648775" height="75.5568673648775" width="192" id="textblock"><g><svg viewBox="0 0 192 42.83453672883724" height="42.83453672883724" width="192"><g transform="matrix(1,0,0,1,0,0)"><svg width="192" viewBox="2.65 -40 192.71333333333334 43" height="42.83453672883724" data-palette-color="#a61713"><path d="M5.95 0L2.65 0 2.65-40 5.95-40 5.95 0ZM8.83-15.65L8.15-15.65 8.15-18.63 8.83-18.63Q10.53-18.63 11.3-19.43 12.08-20.23 12.15-21.98L12.15-21.98Q12.23-23.95 12.25-25.89 12.28-27.83 12.25-29.76 12.23-31.7 12.15-33.68L12.15-33.68Q12.08-35.4 11.31-36.2 10.55-37 8.88-37L8.88-37 8.15-37 8.15-40 8.88-40Q12.28-40 13.8-38.5 15.33-37 15.45-33.52L15.45-33.52Q15.58-30.2 15.58-27.55 15.58-24.9 15.45-22.1L15.45-22.1Q15.33-18.65 13.79-17.15 12.25-15.65 8.83-15.65L8.83-15.65ZM23.92-36L18.67-36 18.67-40 23.92-40 23.92-36ZM22.95 0L19.65 0 19.65-30 22.95-30 22.95 0ZM38.47 0L26.57 0 26.57-2.6 38.47-2.6 38.47 0ZM38.8-27.4L26.77-27.33 26.77-29.93 38.8-30 38.8-27.4ZM30.74-4.45L27.37-4.45 34.52-25.55 37.97-25.55 30.74-4.45ZM52.12 0L40.22 0 40.22-2.6 52.12-2.6 52.12 0ZM52.44-27.4L40.42-27.33 40.42-29.93 52.44-30 52.44-27.4ZM44.39-4.45L41.02-4.45 48.17-25.55 51.62-25.55 44.39-4.45ZM54.77-5.33L54.77-5.33Q54.74-5.98 54.73-6.63 54.72-7.28 54.74-7.88L54.74-7.88Q54.84-9.65 55.32-11.06 55.79-12.48 56.87-13.66 57.94-14.85 59.79-15.9L59.79-15.9Q60.34-16.23 60.93-16.54 61.52-16.85 62.12-17.15L62.12-17.15 62.12-14.7Q61.74-14.48 61.34-14.2 60.94-13.93 60.49-13.58L60.49-13.58Q59.04-12.5 58.58-11.04 58.12-9.58 58.04-7.88L58.04-7.88Q58.02-7.45 58.02-6.81 58.02-6.18 58.04-5.53L58.04-5.53Q58.17-3.95 58.89-3.1 59.62-2.25 60.84-2.25L60.84-2.25Q61.54-2.25 62.12-2.5L62.12-2.5 62.12-0.45Q61.19 0.33 59.72 0.33L59.72 0.33Q57.29 0.33 56.13-1.09 54.97-2.5 54.77-5.33ZM58.49-19.78L55.29-19.78Q55.27-20.75 55.24-22.04 55.22-23.33 55.24-24.3L55.24-24.3Q55.37-27.2 56.55-28.64 57.74-30.08 60.44-30.3L60.44-30.3 60.44-27.63Q59.52-27.45 59.04-26.76 58.57-26.08 58.49-24.63L58.49-24.63Q58.47-24.05 58.45-23.19 58.44-22.33 58.45-21.43 58.47-20.53 58.49-19.78L58.49-19.78ZM67.56 0L64.29 0 64.29-24.53Q64.29-25.85 63.92-26.58 63.54-27.3 62.64-27.55L62.64-27.55 62.64-30.3Q65.42-30.05 66.52-28.53 67.62-27 67.59-23.88L67.59-23.88 67.56 0ZM71.69 3L71.69 2 101.49 2 101.49 3 71.69 3ZM108.94 0L105.64 0 105.64-40 108.94-40 108.94 0ZM111.81-15.65L111.14-15.65 111.14-18.63 111.81-18.63Q113.51-18.63 114.29-19.43 115.06-20.23 115.14-21.98L115.14-21.98Q115.21-23.95 115.24-25.89 115.26-27.83 115.24-29.76 115.21-31.7 115.14-33.68L115.14-33.68Q115.06-35.4 114.3-36.2 113.54-37 111.86-37L111.86-37 111.14-37 111.14-40 111.86-40Q115.26-40 116.79-38.5 118.31-37 118.44-33.52L118.44-33.52Q118.56-30.2 118.56-27.55 118.56-24.9 118.44-22.1L118.44-22.1Q118.31-18.65 116.77-17.15 115.24-15.65 111.81-15.65L111.81-15.65ZM121.63-5.33L121.63-5.33Q121.61-5.98 121.6-6.63 121.58-7.28 121.61-7.88L121.61-7.88Q121.71-9.65 122.18-11.06 122.66-12.48 123.73-13.66 124.81-14.85 126.66-15.9L126.66-15.9Q127.21-16.23 127.8-16.54 128.38-16.85 128.98-17.15L128.98-17.15 128.98-14.7Q128.61-14.48 128.21-14.2 127.81-13.93 127.36-13.58L127.36-13.58Q125.91-12.5 125.45-11.04 124.98-9.58 124.91-7.88L124.91-7.88Q124.88-7.45 124.88-6.81 124.88-6.18 124.91-5.53L124.91-5.53Q125.03-3.95 125.76-3.1 126.48-2.25 127.71-2.25L127.71-2.25Q128.41-2.25 128.98-2.5L128.98-2.5 128.98-0.45Q128.06 0.33 126.58 0.33L126.58 0.33Q124.16 0.33 123-1.09 121.83-2.5 121.63-5.33ZM125.36-19.78L122.16-19.78Q122.13-20.75 122.11-22.04 122.08-23.33 122.11-24.3L122.11-24.3Q122.23-27.2 123.42-28.64 124.61-30.08 127.31-30.3L127.31-30.3 127.31-27.63Q126.38-27.45 125.91-26.76 125.43-26.08 125.36-24.63L125.36-24.63Q125.33-24.05 125.32-23.19 125.31-22.33 125.32-21.43 125.33-20.53 125.36-19.78L125.36-19.78ZM134.43 0L131.16 0 131.16-24.53Q131.16-25.85 130.78-26.58 130.41-27.3 129.51-27.55L129.51-27.55 129.51-30.3Q132.28-30.05 133.38-28.53 134.48-27 134.46-23.88L134.46-23.88 134.43 0ZM143.11 0L139.78 0 139.78-40 143.11-40 143.11 0ZM147.8-5.33L147.8-5.33Q147.78-5.98 147.77-6.63 147.75-7.28 147.78-7.88L147.78-7.88Q147.88-9.65 148.35-11.06 148.83-12.48 149.9-13.66 150.98-14.85 152.83-15.9L152.83-15.9Q153.38-16.23 153.97-16.54 154.55-16.85 155.15-17.15L155.15-17.15 155.15-14.7Q154.78-14.48 154.38-14.2 153.98-13.93 153.53-13.58L153.53-13.58Q152.08-12.5 151.62-11.04 151.15-9.58 151.08-7.88L151.08-7.88Q151.05-7.45 151.05-6.81 151.05-6.18 151.08-5.53L151.08-5.53Q151.2-3.95 151.93-3.1 152.65-2.25 153.88-2.25L153.88-2.25Q154.58-2.25 155.15-2.5L155.15-2.5 155.15-0.45Q154.23 0.33 152.75 0.33L152.75 0.33Q150.33 0.33 149.17-1.09 148-2.5 147.8-5.33ZM151.53-19.78L148.33-19.78Q148.3-20.75 148.28-22.04 148.25-23.33 148.28-24.3L148.28-24.3Q148.4-27.2 149.59-28.64 150.78-30.08 153.48-30.3L153.48-30.3 153.48-27.63Q152.55-27.45 152.08-26.76 151.6-26.08 151.53-24.63L151.53-24.63Q151.5-24.05 151.49-23.19 151.48-22.33 151.49-21.43 151.5-20.53 151.53-19.78L151.53-19.78ZM160.6 0L157.33 0 157.33-24.53Q157.33-25.85 156.95-26.58 156.58-27.3 155.68-27.55L155.68-27.55 155.68-30.3Q158.45-30.05 159.55-28.53 160.65-27 160.63-23.88L160.63-23.88 160.6 0ZM165.58-5.75L165.58-5.75Q165.53-7.78 165.5-10.13 165.48-12.48 165.48-14.94 165.48-17.4 165.5-19.78 165.53-22.15 165.58-24.2L165.58-24.2Q165.73-27.2 166.95-28.64 168.18-30.08 170.9-30.3L170.9-30.3 170.9-27.6Q169.85-27.43 169.39-26.75 168.93-26.08 168.9-24.63L168.9-24.63Q168.85-21.95 168.83-19.61 168.8-17.28 168.8-15.03 168.8-12.78 168.83-10.45 168.85-8.13 168.9-5.45L168.9-5.45Q168.93-4 169.39-3.3 169.85-2.6 170.9-2.4L170.9-2.4 170.9 0.3Q168.15 0.08 166.93-1.35 165.7-2.78 165.58-5.75ZM173.08 0.3L173.08 0.3 173.08-2.4Q174.1-2.6 174.55-3.3 175-4 175.05-5.45L175.05-5.45Q175.05-6.43 175.06-7.63 175.08-8.83 175-10.3L175-10.3 178.25-10.3Q178.33-9.18 178.34-7.95 178.35-6.73 178.3-5.75L178.3-5.75Q178.18-2.78 176.96-1.34 175.75 0.1 173.08 0.3ZM178.25-19.78L175-19.78Q175.05-20.63 175.06-21.5 175.08-22.38 175.06-23.2 175.05-24.03 175.05-24.63L175.05-24.63Q175-26.08 174.55-26.75 174.1-27.43 173.08-27.6L173.08-27.6 173.08-30.3Q175.78-30.1 177-28.68 178.23-27.25 178.3-24.3L178.3-24.3Q178.33-23.33 178.33-22.13 178.33-20.93 178.25-19.78L178.25-19.78ZM182.57-5.75L182.57-5.75Q182.52-7.78 182.5-10.13 182.47-12.48 182.47-14.94 182.47-17.4 182.5-19.78 182.52-22.15 182.57-24.2L182.57-24.2Q182.72-27.2 183.97-28.64 185.22-30.08 187.9-30.28L187.9-30.28 187.9-27.6Q186.87-27.38 186.4-26.66 185.92-25.95 185.9-24.63L185.9-24.63Q185.85-21.95 185.82-19.61 185.8-17.28 185.8-15.05 185.8-12.83 185.82-10.49 185.85-8.15 185.9-5.45L185.9-5.45Q185.92-3.98 186.39-3.29 186.85-2.6 187.9-2.4L187.9-2.4 187.9 0.3Q185.15 0.08 183.92-1.35 182.7-2.78 182.57-5.75ZM190.1 0.3L190.1 0.3 190.1-2.4Q191.07-2.6 191.52-3.3 191.97-4 192.05-5.45L192.05-5.45Q192.1-6.4 192.09-7.6 192.07-8.8 192-10.3L192-10.3 195.25-10.3Q195.32-9.18 195.34-7.95 195.35-6.73 195.3-5.75L195.3-5.75Q195.15-2.78 193.97-1.34 192.8 0.1 190.1 0.3ZM195.25-14.3L187.65-14.3 187.65-16.78 192.05-16.78Q192.1-18.53 192.1-20.08 192.1-21.63 192.09-22.79 192.07-23.95 192.05-24.63L192.05-24.63Q191.95-25.95 191.5-26.66 191.05-27.38 190.1-27.6L190.1-27.6 190.1-30.3Q192.75-30.08 193.95-28.68 195.15-27.28 195.3-24.3L195.3-24.3Q195.32-23.55 195.35-22.05 195.37-20.55 195.36-18.57 195.35-16.6 195.25-14.3L195.25-14.3Z" opacity="1" transform="matrix(1,0,0,1,0,0)" fill="#ffffff" class="wordmark-text-0" data-fill-palette-color="primary" id="text-0"></path></svg></g></svg></g><g transform="matrix(1,0,0,1,0,49.08512366645609)"><svg viewBox="0 0 192 26.471743698421417" height="26.471743698421417" width="192"><g transform="matrix(1,0,0,1,0,0)"><svg width="192" viewBox="1.7 -27.35 318.04 43.85" height="26.471743698421417" data-palette-color="#a61713"><path d="M5.65-0.15L5.65-0.15Q4.2-0.15 3.33-0.68 2.45-1.2 2.08-1.93 1.7-2.65 1.7-3.25L1.7-3.25Q1.7-5.75 3.1-8.78 4.5-11.8 6.4-14.7L6.4-14.7Q7.95-17.1 9.55-19.13 11.15-21.15 12.38-22.53 13.6-23.9 14-24.25L14-24.25Q13.35-24.25 12.75-24.58 12.15-24.9 12.15-25.35L12.15-25.35Q12.15-25.6 12.58-25.85 13-26.1 14.1-26.25L14.1-26.25Q15.75-26.5 17.4-26.58 19.05-26.65 20.43-26.68 21.8-26.7 22.5-26.7L22.5-26.7Q24.4-26.7 24.8-26.1 25.2-25.5 25.2-24.5L25.2-24.5Q24.8-24.6 23.88-24.65 22.95-24.7 21.85-24.7L21.85-24.7Q21.05-24.7 20.25-24.7 19.45-24.7 18.75-24.6L18.75-24.6Q17.75-24.5 16.88-24.25 16-24 15.45-23.5L15.45-23.5Q15.1-23.15 14.35-22.15 13.6-21.15 12.7-19.83 11.8-18.5 10.93-17.13 10.05-15.75 9.4-14.63 8.75-13.5 8.55-12.9L8.55-12.9Q9.35-13.05 10.73-13.33 12.1-13.6 13.8-13.6L13.8-13.6Q16.15-13.6 16.15-12.2L16.15-12.2Q16.15-11.95 16-11.55L16-11.55 7.85-11.55Q7.9-11.65 7.43-10.78 6.95-9.9 6.33-8.55 5.7-7.2 5.23-5.8 4.75-4.4 4.75-3.35L4.75-3.35Q4.75-2.4 5.7-2.4L5.7-2.4Q7.3-2.4 9.08-2.83 10.85-3.25 12.75-3.25L12.75-3.25Q14.1-3.25 15.13-3 16.15-2.75 16.2-1.55L16.2-1.55Q16.05-1.6 15.88-1.6 15.7-1.6 15.5-1.6L15.5-1.6Q14.55-1.6 13.13-1.38 11.7-1.15 10.23-0.88 8.75-0.6 7.5-0.38 6.25-0.15 5.65-0.15ZM23.62 0.2L23.62 0.2Q21.97 0.2 21.32-0.6 20.67-1.4 20.67-2.55L20.67-2.55Q20.67-4.05 21.39-5.75 22.12-7.45 22.67-8.4L22.67-8.4Q24.02-10.55 25.87-12.5 27.72-14.45 29.79-15.68 31.87-16.9 33.77-16.9L33.77-16.9Q34.77-16.9 35.72-16.57 36.67-16.25 37.57-15.5L37.57-15.5Q38.02-15.15 38.19-14.83 38.37-14.5 38.37-14.25L38.37-14.25Q38.37-13.5 37.72-13.5L37.72-13.5Q37.27-13.5 37.07-14.1L37.07-14.1Q36.42-15.8 34.97-15.8L34.97-15.8Q33.72-15.8 32.12-14.65 30.52-13.5 28.97-11.9L28.97-11.9Q27.27-10.1 25.87-8.03 24.47-5.95 23.77-4.25L23.77-4.25Q23.42-3.5 23.29-2.93 23.17-2.35 23.17-1.95L23.17-1.95Q23.17-1.05 23.92-1.05L23.92-1.05Q24.77-1.05 26.42-2.3L26.42-2.3Q27.62-3.25 28.89-4.6 30.17-5.95 31.27-7.28 32.37-8.6 33.02-9.35L33.02-9.35Q33.27-9.75 33.49-10.1 33.72-10.45 33.92-10.7L33.92-10.7Q34.12-10.95 34.59-11.1 35.07-11.25 35.57-11.25L35.57-11.25Q36.17-11.25 36.57-11.05 36.97-10.85 36.72-10.35L36.72-10.35Q36.72-10.3 36.17-9.33 35.62-8.35 34.89-7 34.17-5.65 33.62-4.4L33.62-4.4Q33.32-3.7 33.12-3.1 32.92-2.5 32.92-2.1L32.92-2.1Q32.92-1.45 33.42-1.45L33.42-1.45Q33.77-1.45 34.47-1.85L34.47-1.85Q35.57-2.4 36.69-3.45 37.82-4.5 38.77-5.6L38.77-5.6Q39.32-6.15 39.77-6.65 40.22-7.15 40.62-7.7L40.62-7.7Q40.77-7.85 40.87-7.85L40.87-7.85Q41.17-7.85 41.17-7.4L41.17-7.4Q41.17-7.15 40.97-6.95L40.97-6.95Q40.42-6.3 39.87-5.63 39.32-4.95 38.72-4.3L38.72-4.3Q38.17-3.65 37.59-3.03 37.02-2.4 36.42-1.85L36.42-1.85Q34.27 0.15 32.47 0.15L32.47 0.15Q31.67 0.15 31.12-0.43 30.57-1 30.57-2.25L30.57-2.25Q30.57-3.2 30.92-4.4L30.92-4.4Q31.02-4.95 31.24-5.5 31.47-6.05 31.67-6.65L31.67-6.65Q30.67-5.05 29.39-3.48 28.12-1.9 26.67-0.85 25.22 0.2 23.62 0.2ZM44.33 0.15L44.33 0.15Q43.23 0.15 42.48-0.5 41.73-1.15 41.73-2.7L41.73-2.7Q41.73-3.1 41.78-3.5 41.83-3.9 41.93-4.35L41.93-4.35Q42.33-6.35 43.58-9.22 44.83-12.1 46.78-15.75L46.78-15.75 44.88-15.75Q44.33-15.75 44.33-16.05L44.33-16.05Q44.33-16.2 44.61-16.38 44.88-16.55 45.38-16.55L45.38-16.55 47.18-16.55Q48.03-18 48.56-18.82 49.08-19.65 49.43-20.1L49.43-20.1Q50.73-21.75 51.81-22.43 52.88-23.1 53.68-23.2 54.48-23.3 54.83-23.3L54.83-23.3Q54.13-22.55 53.28-21.35 52.43-20.15 51.63-18.88 50.83-17.6 50.28-16.55L50.28-16.55 55.38-16.55Q55.93-16.55 55.93-16.3L55.93-16.3Q55.93-16.1 55.63-15.93 55.33-15.75 54.83-15.75L54.83-15.75 49.78-15.75Q48.98-14.3 48.36-13.18 47.73-12.05 47.11-10.8 46.48-9.55 45.58-7.7L45.58-7.7Q44.88-6.15 44.56-5.05 44.23-3.95 44.23-3.2L44.23-3.2Q44.23-2.25 44.63-1.85 45.03-1.45 45.63-1.45L45.63-1.45Q46.23-1.45 47.03-1.85L47.03-1.85Q48.13-2.4 49.23-3.45 50.33-4.5 51.33-5.6L51.33-5.6Q51.83-6.15 52.28-6.65 52.73-7.15 53.13-7.7L53.13-7.7Q53.28-7.85 53.38-7.85L53.38-7.85Q53.68-7.85 53.68-7.45L53.68-7.45Q53.68-7.15 53.48-6.95L53.48-6.95Q52.43-5.65 51.28-4.3L51.28-4.3Q49.93-2.75 48.28-1.3 46.63 0.15 44.33 0.15ZM66.72 0.6L66.72 0.6Q65.97 0.2 65.57-0.5 65.17-1.2 65.17-2.65L65.17-2.65Q65.17-3.7 65.74-4.88 66.32-6.05 67.09-7.18 67.87-8.3 68.42-9.2L68.42-9.2Q70.47-12.6 72.62-16.05 74.77-19.5 76.17-22.65L76.17-22.65Q75.77-22.55 75.39-22.53 75.02-22.5 74.62-22.45L74.62-22.45Q74.42-22.4 74.19-22.4 73.97-22.4 73.77-22.4L73.77-22.4Q72.72-22.4 72.27-22.75 71.82-23.1 71.82-23.6L71.82-23.6Q71.82-23.8 71.89-23.98 71.97-24.15 72.02-24.35L72.02-24.35Q73.27-24.45 74.59-24.7 75.92-24.95 77.22-25.3L77.22-25.3Q77.32-25.65 77.44-26.03 77.57-26.4 77.62-26.75L77.62-26.75Q78.22-26.75 78.52-26.43 78.82-26.1 78.97-25.7L78.97-25.7Q80.57-26.1 82.07-26.4 83.57-26.7 84.87-26.7L84.87-26.7Q87.57-26.7 88.72-25.23 89.87-23.75 89.87-21.7L89.87-21.7Q89.87-19.85 88.64-17.63 87.42-15.4 85.37-13.35 83.32-11.3 80.79-10 78.27-8.7 75.72-8.7L75.72-8.7Q74.72-8.7 73.69-8.95 72.67-9.2 71.72-9.75L71.72-9.75Q71.07-8.6 70.39-7.38 69.72-6.15 69.12-4.95L69.12-4.95Q68.17-3.15 67.49-1.63 66.82-0.1 66.72 0.6ZM73.02-11.75L72.22-10.6Q73.87-10.5 75.99-11.13 78.12-11.75 80.32-12.9 82.52-14.05 84.39-15.6 86.27-17.15 87.42-18.88 88.57-20.6 88.57-22.3L88.57-22.3Q88.57-24.25 85.07-24.25L85.07-24.25Q83.62-24.25 82.07-23.95 80.52-23.65 79.02-23.3L79.02-23.3Q78.82-22.35 78.07-20.78 77.32-19.2 76.34-17.45 75.37-15.7 74.47-14.18 73.57-12.65 73.02-11.75L73.02-11.75ZM97.99-19.75L97.99-19.75Q97.44-19.75 97.09-20.13 96.74-20.5 96.74-21L96.74-21Q96.74-21.75 97.26-22.28 97.79-22.8 98.44-22.8L98.44-22.8Q99.09-22.8 99.46-22.38 99.84-21.95 99.74-21.3L99.74-21.3Q99.59-20.65 99.11-20.2 98.64-19.75 97.99-19.75ZM91.14 0L91.14 0Q90.04 0 89.24-0.73 88.44-1.45 88.44-3.2L88.44-3.2Q88.44-3.95 88.59-4.85L88.59-4.85Q89.04-7.2 90.06-9.35 91.09-11.5 92.06-13.08 93.04-14.65 93.34-15.15L93.34-15.15Q93.59-15.65 94.64-16.13 95.69-16.6 96.39-16.6L96.39-16.6Q96.99-16.6 96.99-16.2L96.99-16.2Q96.99-15.85 96.74-15.55L96.74-15.55Q95.99-14.35 95.01-12.83 94.04-11.3 93.14-9.6 92.24-7.9 91.64-6.25 91.04-4.6 91.04-3.2L91.04-3.2Q91.04-2.45 91.31-2 91.59-1.55 92.34-1.55L92.34-1.55Q93.14-1.55 94.19-2.33 95.24-3.1 96.21-4.08 97.19-5.05 97.64-5.6L97.64-5.6Q98.14-6.15 98.61-6.65 99.09-7.15 99.49-7.7L99.49-7.7Q99.64-7.85 99.74-7.85L99.74-7.85Q100.04-7.85 100.04-7.4L100.04-7.4Q100.04-7.15 99.84-6.95L99.84-6.95Q99.29-6.3 98.74-5.63 98.19-4.95 97.59-4.3L97.59-4.3Q96.79-3.35 95.79-2.35 94.79-1.35 93.64-0.68 92.49 0 91.14 0ZM100.85 0.95L100.85 0.95Q100.5 0.95 100.5 0.45L100.5 0.45Q100.5-0.05 101.25-1.05 102-2.05 103.15-3.33 104.3-4.6 105.6-5.93 106.9-7.25 108.03-8.33 109.15-9.4 109.8-10.05L109.8-10.05Q111-11.2 112.23-12.5 113.45-13.8 114.5-14.85L114.5-14.85Q114.25-14.85 113.53-14.9 112.8-14.95 111.95-14.95L111.95-14.95Q111.55-14.95 111.15-14.95 110.75-14.95 110.4-14.85L110.4-14.85Q108.6-14.55 107.35-13.5 106.1-12.45 105.08-11.03 104.05-9.6 103.05-8.1 102.05-6.6 100.75-5.3L100.75-5.3Q100.55-5.1 100.35-5.1L100.35-5.1Q100.15-5.1 100.05-5.33 99.95-5.55 100.15-5.75L100.15-5.75Q101.45-7.3 102.5-9.25 103.55-11.2 104.6-13 105.65-14.8 106.98-15.9 108.3-17 110.15-16.85L110.15-16.85Q111.45-16.75 112.55-16.68 113.65-16.6 114.6-16.6L114.6-16.6Q115.65-16.6 116.55-16.68 117.45-16.75 118.2-16.8L118.2-16.8Q116.2-14.95 114.15-12.98 112.1-11 110.65-9.55L110.65-9.55Q109.25-8.15 107.55-6.5 105.85-4.85 104.75-3.55L104.75-3.55Q104.85-3.6 105-3.6 105.15-3.6 105.25-3.6L105.25-3.6Q106.55-3.6 107.45-2.95L107.45-2.95Q107.85-2.75 108.58-2.27 109.3-1.8 110.4-1.8L110.4-1.8Q111-1.8 111.68-2.02 112.35-2.25 113.15-2.85L113.15-2.85Q113.45-3.05 114.05-3.53 114.65-4 115.3-4.58 115.95-5.15 116.35-5.6L116.35-5.6Q116.9-6.15 117.35-6.65 117.8-7.15 118.2-7.7L118.2-7.7Q118.3-7.85 118.45-7.85L118.45-7.85Q118.75-7.85 118.75-7.45L118.75-7.45Q118.75-7.2 118.5-6.95L118.5-6.95Q118-6.3 117.45-5.63 116.9-4.95 116.3-4.3L116.3-4.3Q116.1-4.05 115.3-3.28 114.5-2.5 113.48-1.63 112.45-0.75 111.55-0.15L111.55-0.15Q110.9 0.35 110.3 0.53 109.7 0.7 109.2 0.7L109.2 0.7Q107.95 0.7 107.13 0.03 106.3-0.65 105.6-0.8L105.6-0.8Q105.4-0.85 105.18-0.88 104.95-0.9 104.7-0.9L104.7-0.9Q102.85-0.9 101.65 0.45L101.65 0.45Q101.15 0.95 100.85 0.95ZM119.42 0.95L119.42 0.95Q119.07 0.95 119.07 0.45L119.07 0.45Q119.07-0.05 119.82-1.05 120.57-2.05 121.72-3.33 122.87-4.6 124.17-5.93 125.47-7.25 126.6-8.33 127.72-9.4 128.37-10.05L128.37-10.05Q129.57-11.2 130.8-12.5 132.02-13.8 133.07-14.85L133.07-14.85Q132.82-14.85 132.1-14.9 131.37-14.95 130.52-14.95L130.52-14.95Q130.12-14.95 129.72-14.95 129.32-14.95 128.97-14.85L128.97-14.85Q127.17-14.55 125.92-13.5 124.67-12.45 123.65-11.03 122.62-9.6 121.62-8.1 120.62-6.6 119.32-5.3L119.32-5.3Q119.12-5.1 118.92-5.1L118.92-5.1Q118.72-5.1 118.62-5.33 118.52-5.55 118.72-5.75L118.72-5.75Q120.02-7.3 121.07-9.25 122.12-11.2 123.17-13 124.22-14.8 125.55-15.9 126.87-17 128.72-16.85L128.72-16.85Q130.02-16.75 131.12-16.68 132.22-16.6 133.17-16.6L133.17-16.6Q134.22-16.6 135.12-16.68 136.02-16.75 136.77-16.8L136.77-16.8Q134.77-14.95 132.72-12.98 130.67-11 129.22-9.55L129.22-9.55Q127.82-8.15 126.12-6.5 124.42-4.85 123.32-3.55L123.32-3.55Q123.42-3.6 123.57-3.6 123.72-3.6 123.82-3.6L123.82-3.6Q125.12-3.6 126.02-2.95L126.02-2.95Q126.42-2.75 127.15-2.27 127.87-1.8 128.97-1.8L128.97-1.8Q129.57-1.8 130.25-2.02 130.92-2.25 131.72-2.85L131.72-2.85Q132.02-3.05 132.62-3.53 133.22-4 133.87-4.58 134.52-5.15 134.92-5.6L134.92-5.6Q135.47-6.15 135.92-6.65 136.37-7.15 136.77-7.7L136.77-7.7Q136.87-7.85 137.02-7.85L137.02-7.85Q137.32-7.85 137.32-7.45L137.32-7.45Q137.32-7.2 137.07-6.95L137.07-6.95Q136.57-6.3 136.02-5.63 135.47-4.95 134.87-4.3L134.87-4.3Q134.67-4.05 133.87-3.28 133.07-2.5 132.05-1.63 131.02-0.75 130.12-0.15L130.12-0.15Q129.47 0.35 128.87 0.53 128.27 0.7 127.77 0.7L127.77 0.7Q126.52 0.7 125.7 0.03 124.87-0.65 124.17-0.8L124.17-0.8Q123.97-0.85 123.75-0.88 123.52-0.9 123.27-0.9L123.27-0.9Q121.42-0.9 120.22 0.45L120.22 0.45Q119.72 0.95 119.42 0.95ZM140.29 0.2L140.29 0.2Q138.64 0.2 137.99-0.6 137.34-1.4 137.34-2.55L137.34-2.55Q137.34-4.05 138.06-5.75 138.79-7.45 139.34-8.4L139.34-8.4Q140.69-10.55 142.54-12.5 144.39-14.45 146.46-15.68 148.54-16.9 150.44-16.9L150.44-16.9Q151.44-16.9 152.39-16.57 153.34-16.25 154.24-15.5L154.24-15.5Q154.69-15.15 154.86-14.83 155.04-14.5 155.04-14.25L155.04-14.25Q155.04-13.5 154.39-13.5L154.39-13.5Q153.94-13.5 153.74-14.1L153.74-14.1Q153.09-15.8 151.64-15.8L151.64-15.8Q150.39-15.8 148.79-14.65 147.19-13.5 145.64-11.9L145.64-11.9Q143.94-10.1 142.54-8.03 141.14-5.95 140.44-4.25L140.44-4.25Q140.09-3.5 139.96-2.93 139.84-2.35 139.84-1.95L139.84-1.95Q139.84-1.05 140.59-1.05L140.59-1.05Q141.44-1.05 143.09-2.3L143.09-2.3Q144.29-3.25 145.56-4.6 146.84-5.95 147.94-7.28 149.04-8.6 149.69-9.35L149.69-9.35Q149.94-9.75 150.16-10.1 150.39-10.45 150.59-10.7L150.59-10.7Q150.79-10.95 151.26-11.1 151.74-11.25 152.24-11.25L152.24-11.25Q152.84-11.25 153.24-11.05 153.64-10.85 153.39-10.35L153.39-10.35Q153.39-10.3 152.84-9.33 152.29-8.35 151.56-7 150.84-5.65 150.29-4.4L150.29-4.4Q149.99-3.7 149.79-3.1 149.59-2.5 149.59-2.1L149.59-2.1Q149.59-1.45 150.09-1.45L150.09-1.45Q150.44-1.45 151.14-1.85L151.14-1.85Q152.24-2.4 153.36-3.45 154.49-4.5 155.44-5.6L155.44-5.6Q155.99-6.15 156.44-6.65 156.89-7.15 157.29-7.7L157.29-7.7Q157.44-7.85 157.54-7.85L157.54-7.85Q157.84-7.85 157.84-7.4L157.84-7.4Q157.84-7.15 157.64-6.95L157.64-6.95Q157.09-6.3 156.54-5.63 155.99-4.95 155.39-4.3L155.39-4.3Q154.84-3.65 154.26-3.03 153.69-2.4 153.09-1.85L153.09-1.85Q150.94 0.15 149.14 0.15L149.14 0.15Q148.34 0.15 147.79-0.43 147.24-1 147.24-2.25L147.24-2.25Q147.24-3.2 147.59-4.4L147.59-4.4Q147.69-4.95 147.91-5.5 148.14-6.05 148.34-6.65L148.34-6.65Q147.34-5.05 146.06-3.48 144.79-1.9 143.34-0.85 141.89 0.2 140.29 0.2ZM176.77 1L175.12 1Q173.97 1 172.77 0.8 171.57 0.6 170.77-0.13 169.97-0.85 169.97-2.4L169.97-2.4Q169.97-3.45 170.8-5.33 171.62-7.2 172.92-9.38 174.22-11.55 175.57-13.6 176.92-15.65 177.97-17.05L177.97-17.05Q179.17-18.65 180.12-20.25 181.07-21.85 181.27-23.1L181.27-23.1Q181.22-23.2 180.27-22.98 179.32-22.75 178.17-22.75L178.17-22.75Q177.37-22.75 177.1-22.98 176.82-23.2 176.82-23.55L176.82-23.55Q176.82-23.8 176.92-24.08 177.02-24.35 177.17-24.7L177.17-24.7Q179.37-24.9 181.95-25.53 184.52-26.15 187.1-26.73 189.67-27.3 191.87-27.3L191.87-27.3Q195.22-27.3 196.62-25.78 198.02-24.25 198.02-22.15L198.02-22.15Q198.02-20.3 196.82-18.73 195.62-17.15 193.72-15.9 191.82-14.65 189.67-13.75 187.52-12.85 185.57-12.35 183.62-11.85 182.42-11.8L182.42-11.8Q184.42-11.8 186.2-11.28 187.97-10.75 189.12-9.7 190.27-8.65 190.27-6.95L190.27-6.95Q190.27-5.25 189.27-3.95 188.27-2.65 186.7-1.7 185.12-0.75 183.27-0.15 181.42 0.45 179.7 0.73 177.97 1 176.77 1L176.77 1ZM178.12-11.9L178.12-11.9Q179.77-12 182.12-12.7 184.47-13.4 187-14.5 189.52-15.6 191.7-16.95 193.87-18.3 195.25-19.8 196.62-21.3 196.62-22.75L196.62-22.75Q196.62-24.8 192.12-24.8L192.12-24.8Q189.82-24.8 187.37-24.28 184.92-23.75 182.57-23.35L182.57-23.35Q182.87-22.85 182.87-22.05L182.87-22.05Q182.87-20.95 182.3-19.53 181.72-18.1 180.92-16.63 180.12-15.15 179.35-13.9 178.57-12.65 178.12-11.9ZM176.52-0.1L176.52-0.1Q178.22-0.1 180.15-0.78 182.07-1.45 183.75-2.55 185.42-3.65 186.5-4.88 187.57-6.1 187.57-7.2L187.57-7.2Q187.57-8.8 186.37-9.58 185.17-10.35 183.45-10.6 181.72-10.85 180.17-10.85L180.17-10.85Q179.27-10.85 178.55-10.83 177.82-10.8 177.42-10.75L177.42-10.75Q176.67-9.45 175.47-7.75 174.27-6.05 173.32-4.4 172.37-2.75 172.37-1.45L172.37-1.45Q172.37-0.9 173.15-0.5 173.92-0.1 176.52-0.1ZM199.74 0.75L199.74 0.75Q197.89 0.75 196.79-0.33 195.69-1.4 195.69-3.35L195.69-3.35Q195.69-4.85 196.27-6.5 196.84-8.15 197.39-9.1L197.39-9.1Q198.54-11.2 200.17-12.95 201.79-14.7 203.52-15.78 205.24-16.85 206.69-16.85L206.69-16.85Q208.04-16.85 209.02-16.1 209.99-15.35 209.99-14.1L209.99-14.1Q209.99-13.6 209.74-12.95 209.49-12.3 208.94-11.6L208.94-11.6Q206.94-9.05 204.52-7.63 202.09-6.2 198.99-5.5L198.99-5.5Q198.79-4.85 198.64-4.23 198.49-3.6 198.39-3.05L198.39-3.05Q198.34-2.8 198.32-2.58 198.29-2.35 198.29-2.1L198.29-2.1Q198.29-1.1 198.77-0.68 199.24-0.25 199.94-0.25L199.94-0.25Q201.04-0.25 202.29-0.83 203.54-1.4 204.64-2.15 205.74-2.9 206.29-3.35L206.29-3.35Q206.84-3.85 207.37-4.38 207.89-4.9 208.54-5.55L208.54-5.55Q209.04-6.1 209.49-6.63 209.94-7.15 210.34-7.7L210.34-7.7Q210.49-7.85 210.59-7.85L210.59-7.85Q210.89-7.85 210.89-7.4L210.89-7.4Q210.89-7.15 210.69-6.95L210.69-6.95Q209.79-5.85 208.89-4.78 207.99-3.7 207.04-2.7L207.04-2.7Q205.94-1.55 204.02-0.4 202.09 0.75 199.74 0.75ZM199.29-6.15L199.29-6.15Q200.59-6.7 202.32-7.75 204.04-8.8 205.67-10.28 207.29-11.75 208.34-13.45L208.34-13.45Q208.69-14 208.69-14.45L208.69-14.45Q208.69-15.15 207.89-15.15L207.89-15.15Q207.34-15.15 206.54-14.75L206.54-14.75Q204.04-13.4 202.24-11.1 200.44-8.8 199.29-6.15ZM223.58 0.6L223.58 0.6Q222.83 0.2 222.43-0.5 222.03-1.2 222.03-2.65L222.03-2.65Q222.03-3.7 222.6-4.88 223.18-6.05 223.95-7.18 224.73-8.3 225.28-9.2L225.28-9.2Q227.18-12.3 229.15-15.5 231.13-18.7 232.68-21.73 234.23-24.75 234.83-27.25L234.83-27.25Q234.93-27.3 235.23-27.3L235.23-27.3Q236.13-27.3 237.1-26.43 238.08-25.55 238.18-24.7L238.18-24.7Q238.18-24.55 238.2-24.4 238.23-24.25 238.23-24.05L238.23-24.05Q238.23-22.8 237.83-21 237.43-19.2 236.95-17.2 236.48-15.2 236.13-13.25L236.13-13.25Q235.78-11.2 235.45-9.3 235.13-7.4 234.88-6.1L234.88-6.1Q236.08-7.65 237.63-9.73 239.18-11.8 240.88-14.1 242.58-16.4 244.23-18.63 245.88-20.85 247.25-22.73 248.63-24.6 249.5-25.85 250.38-27.1 250.53-27.35L250.53-27.35Q251.43-27.35 252.38-26.85 253.33-26.35 253.33-25.35L253.33-25.35Q253.33-25.15 253.18-24.6 253.03-24.05 252.08-22.25L252.08-22.25Q250.53-19.05 248.83-15.75 247.13-12.45 245.73-9.05L245.73-9.05Q245.13-7.55 244.5-5.98 243.88-4.4 243.28-2.65L243.28-2.65Q242.93-1.6 242.85-0.8 242.78 0 242.73 0.45L242.73 0.45Q241.68-0.1 241.2-1.07 240.73-2.05 240.73-3.25L240.73-3.25Q240.73-4.85 241.63-7.05 242.53-9.25 243.85-11.68 245.18-14.1 246.5-16.43 247.83-18.75 248.73-20.65 249.63-22.55 249.63-23.7L249.63-23.7Q249.63-23.7 248.98-22.8 248.33-21.9 247.33-20.55 246.33-19.2 245.28-17.75 244.23-16.3 243.4-15.2 242.58-14.1 242.28-13.7L242.28-13.7Q240.13-10.75 238.3-8.33 236.48-5.9 235.53-4.1L235.53-4.1Q235.03-3.05 234.85-2.23 234.68-1.4 234.68-0.75L234.68-0.75Q233.43-0.75 232.98-1.85 232.53-2.95 232.53-4.35L232.53-4.35Q232.53-5.2 232.63-6.08 232.73-6.95 232.83-7.6L232.83-7.6Q233.18-9.75 233.73-12.53 234.28-15.3 234.85-18.03 235.43-20.75 235.73-22.65L235.73-22.65Q235.28-21.35 234.48-19.78 233.68-18.2 232.8-16.63 231.93-15.05 231.13-13.75 230.33-12.45 229.88-11.75L229.88-11.75Q228.93-10.35 227.9-8.53 226.88-6.7 225.98-4.95L225.98-4.95Q225.03-3.15 224.35-1.63 223.68-0.1 223.58 0.6ZM256.44 0.75L256.44 0.75Q254.59 0.75 253.49-0.33 252.39-1.4 252.39-3.35L252.39-3.35Q252.39-4.85 252.97-6.5 253.54-8.15 254.09-9.1L254.09-9.1Q255.24-11.2 256.87-12.95 258.49-14.7 260.22-15.78 261.94-16.85 263.39-16.85L263.39-16.85Q264.74-16.85 265.72-16.1 266.69-15.35 266.69-14.1L266.69-14.1Q266.69-13.6 266.44-12.95 266.19-12.3 265.64-11.6L265.64-11.6Q263.64-9.05 261.22-7.63 258.79-6.2 255.69-5.5L255.69-5.5Q255.49-4.85 255.34-4.23 255.19-3.6 255.09-3.05L255.09-3.05Q255.04-2.8 255.02-2.58 254.99-2.35 254.99-2.1L254.99-2.1Q254.99-1.1 255.47-0.68 255.94-0.25 256.64-0.25L256.64-0.25Q257.74-0.25 258.99-0.83 260.24-1.4 261.34-2.15 262.44-2.9 262.99-3.35L262.99-3.35Q263.54-3.85 264.07-4.38 264.59-4.9 265.24-5.55L265.24-5.55Q265.74-6.1 266.19-6.63 266.64-7.15 267.04-7.7L267.04-7.7Q267.19-7.85 267.29-7.85L267.29-7.85Q267.59-7.85 267.59-7.4L267.59-7.4Q267.59-7.15 267.39-6.95L267.39-6.95Q266.49-5.85 265.59-4.78 264.69-3.7 263.74-2.7L263.74-2.7Q262.64-1.55 260.72-0.4 258.79 0.75 256.44 0.75ZM255.99-6.15L255.99-6.15Q257.29-6.7 259.02-7.75 260.74-8.8 262.37-10.28 263.99-11.75 265.04-13.45L265.04-13.45Q265.39-14 265.39-14.45L265.39-14.45Q265.39-15.15 264.59-15.15L264.59-15.15Q264.04-15.15 263.24-14.75L263.24-14.75Q260.74-13.4 258.94-11.1 257.14-8.8 255.99-6.15ZM275.46 0.25L275.46 0.25Q274.51 0.25 273.86-0.4L273.86-0.4Q273.21-1.05 273.21-2.25L273.21-2.25Q273.21-2.8 273.31-3.28 273.41-3.75 273.56-4.1L273.56-4.1Q273.81-4.85 274.51-6.05 275.21-7.25 276.06-8.58 276.91-9.9 277.51-10.95L277.51-10.95Q278.26-12.25 278.26-13.2L278.26-13.2Q278.26-14.25 277.36-14.85L277.36-14.85Q277.01-15.1 276.66-15.33 276.31-15.55 276.06-15.75L276.06-15.75 274.66-13.5Q273.46-11.85 272.16-10.1 270.86-8.35 269.66-6.88 268.46-5.4 267.61-4.4L267.61-4.4Q267.46-4.25 267.31-4.25L267.31-4.25Q267.06-4.25 266.91-4.5 266.76-4.75 266.96-4.95L266.96-4.95Q268.91-7.15 270.71-9.45 272.51-11.75 274.06-14.35L274.06-14.35 275.26-16.4Q275.06-16.55 274.64-17.05 274.21-17.55 273.84-18.18 273.46-18.8 273.46-19.25L273.46-19.25Q273.46-19.65 273.74-19.88 274.01-20.1 274.71-20.1L274.71-20.1Q276.41-20.1 276.36-16.45L276.36-16.45Q277.06-15.9 277.91-15.6 278.76-15.3 279.54-15.03 280.31-14.75 280.81-14.25 281.31-13.75 281.31-12.75L281.31-12.75Q281.31-11.9 280.84-10.78 280.36-9.65 279.71-8.8L279.71-8.8Q279.16-8.05 278.44-7 277.71-5.95 277.06-4.9 276.41-3.85 276.11-3L276.11-3Q275.86-2.35 275.86-2.05L275.86-2.05Q275.86-1.4 276.46-1.4L276.46-1.4Q277.01-1.4 277.81-1.85L277.81-1.85Q278.86-2.4 279.99-3.43 281.11-4.45 282.06-5.55L282.06-5.55Q282.61-6.1 283.06-6.63 283.51-7.15 283.91-7.7L283.91-7.7Q284.06-7.85 284.16-7.85L284.16-7.85Q284.46-7.85 284.46-7.4L284.46-7.4Q284.46-7.15 284.26-6.95L284.26-6.95Q283.21-5.7 282.11-4.33 281.01-2.95 279.76-1.85L279.76-1.85Q279.01-1.25 277.81-0.5 276.61 0.25 275.46 0.25ZM292.43 0.25L292.43 0.25Q291.48 0.25 290.83-0.4L290.83-0.4Q290.18-1.05 290.18-2.25L290.18-2.25Q290.18-2.8 290.28-3.28 290.38-3.75 290.53-4.1L290.53-4.1Q290.78-4.85 291.48-6.05 292.18-7.25 293.03-8.58 293.88-9.9 294.48-10.95L294.48-10.95Q295.23-12.25 295.23-13.2L295.23-13.2Q295.23-14.25 294.33-14.85L294.33-14.85Q293.98-15.1 293.63-15.33 293.28-15.55 293.03-15.75L293.03-15.75 291.63-13.5Q290.43-11.85 289.13-10.1 287.83-8.35 286.63-6.88 285.43-5.4 284.58-4.4L284.58-4.4Q284.43-4.25 284.28-4.25L284.28-4.25Q284.03-4.25 283.88-4.5 283.73-4.75 283.93-4.95L283.93-4.95Q285.88-7.15 287.68-9.45 289.48-11.75 291.03-14.35L291.03-14.35 292.23-16.4Q292.03-16.55 291.6-17.05 291.18-17.55 290.8-18.18 290.43-18.8 290.43-19.25L290.43-19.25Q290.43-19.65 290.7-19.88 290.98-20.1 291.68-20.1L291.68-20.1Q293.38-20.1 293.33-16.45L293.33-16.45Q294.03-15.9 294.88-15.6 295.73-15.3 296.5-15.03 297.28-14.75 297.78-14.25 298.28-13.75 298.28-12.75L298.28-12.75Q298.28-11.9 297.8-10.78 297.33-9.65 296.68-8.8L296.68-8.8Q296.13-8.05 295.4-7 294.68-5.95 294.03-4.9 293.38-3.85 293.08-3L293.08-3Q292.83-2.35 292.83-2.05L292.83-2.05Q292.83-1.4 293.43-1.4L293.43-1.4Q293.98-1.4 294.78-1.85L294.78-1.85Q295.83-2.4 296.95-3.43 298.08-4.45 299.03-5.55L299.03-5.55Q299.58-6.1 300.03-6.63 300.48-7.15 300.88-7.7L300.88-7.7Q301.03-7.85 301.13-7.85L301.13-7.85Q301.43-7.85 301.43-7.4L301.43-7.4Q301.43-7.15 301.23-6.95L301.23-6.95Q300.18-5.7 299.08-4.33 297.98-2.95 296.73-1.85L296.73-1.85Q295.98-1.25 294.78-0.5 293.58 0.25 292.43 0.25ZM298.39 16.5L298.39 16.5Q296.99 16.5 296.22 15.75 295.44 15 295.44 13.6L295.44 13.6Q295.44 11.6 296.59 9.8 297.74 8 299.52 6.48 301.29 4.95 303.19 3.7 305.09 2.45 306.64 1.55 308.19 0.65 308.84 0.15L308.84 0.15Q310.09-2.1 311.19-4.48 312.29-6.85 313.14-9.2L313.14-9.2Q311.84-6.9 310.32-4.8 308.79-2.7 307.27-1.35 305.74 0 304.34 0L304.34 0Q302.89 0 302.39-0.98 301.89-1.95 301.89-3.1L301.89-3.1Q301.89-4 302.07-4.85 302.24-5.7 302.39-6.1L302.39-6.1Q302.84-7.4 303.54-8.97 304.24-10.55 304.97-12.08 305.69-13.6 306.24-14.75L306.24-14.75Q306.64-15.6 307.74-16.23 308.84-16.85 309.54-16.85L309.54-16.85Q310.29-16.85 310.29-16.3L310.29-16.3Q310.29-15.9 309.84-15.15L309.84-15.15Q309.44-14.45 308.64-12.95 307.84-11.45 306.92-9.65 305.99-7.85 305.24-6.2L305.24-6.2Q304.34-4.25 304.34-2.7L304.34-2.7Q304.34-2.05 304.54-1.65 304.74-1.25 305.19-1.25L305.19-1.25Q305.59-1.25 306.24-1.7 306.89-2.15 307.74-3.2L307.74-3.2Q308.19-3.7 309.12-4.9 310.04-6.1 311.14-7.73 312.24-9.35 313.24-11.18 314.24-13 314.84-14.7L314.84-14.7 315.14-15.8Q315.54-16.15 315.94-16.15L315.94-16.15Q316.49-16.15 316.89-15.65 317.29-15.15 317.34-15.05L317.34-15.05Q316.54-12.15 315.34-8.85 314.14-5.55 312.24-1.45L312.24-1.45Q314.14-2.65 315.44-3.78 316.74-4.9 317.34-5.55L317.34-5.55Q317.84-6.1 318.32-6.65 318.79-7.2 319.19-7.75L319.19-7.75Q319.34-7.9 319.44-7.9L319.44-7.9Q319.74-7.9 319.74-7.45L319.74-7.45Q319.74-7.15 319.54-6.95L319.54-6.95Q318.99-6.3 318.47-5.63 317.94-4.95 317.34-4.25L317.34-4.25Q316.34-3.15 314.67-1.88 312.99-0.6 311.39 0.3L311.39 0.3Q310.14 3.25 308.77 6.13 307.39 9 305.84 11.35 304.29 13.7 302.44 15.1 300.59 16.5 298.39 16.5ZM298.19 15.45L298.19 15.45Q299.49 15.45 300.77 14.4 302.04 13.35 303.19 11.68 304.34 10 305.34 8.1 306.34 6.2 307.12 4.45 307.89 2.7 308.39 1.55L308.39 1.55Q307.54 2.1 306.09 3.13 304.64 4.15 302.99 5.45 301.34 6.75 299.87 8.2 298.39 9.65 297.47 11.08 296.54 12.5 296.54 13.7L296.54 13.7Q296.54 14.3 296.89 14.88 297.24 15.45 298.19 15.45Z" opacity="1" transform="matrix(1,0,0,1,0,0)" fill="#ffffff" class="slogan-text-1" data-fill-palette-color="secondary" id="text-1"></path></svg></g></svg></g></svg></g></svg></g><g transform="matrix(1,0,0,1,44.05296141543068,0)"><svg viewBox="0 0 103.89407716913864 104.41959069826072" height="104.41959069826072" width="103.89407716913864"><g><svg xmlns="http://www.w3.org/2000/svg" xmlns:xlink="http://www.w3.org/1999/xlink" version="1.1" x="0" y="0" viewBox="3.7035191987868017 1.559 93.98048080121319 94.45584971039588" enable-background="new 0 0 100 100" xml:space="preserve" height="104.41959069826072" width="103.89407716913864" class="icon-icon-0" data-fill-palette-color="accent" id="icon-0"><path d="M14.257 65.774C18.448 75.219 25.992 82.176 34.888 85.845L48.819 50.921zM20.294 69.357A3.835 3.835 0 0 1 27.343 66.328 3.835 3.835 0 0 1 25.333 71.367 3.834 3.834 0 0 1 20.294 69.357M34.255 79.309A3.833 3.833 0 0 1 29.217 77.299 3.834 3.834 0 0 1 31.227 72.262 3.834 3.834 0 0 1 36.265 74.271 3.834 3.834 0 0 1 34.255 79.309M37.428 67.26A3.835 3.835 0 1 1 34.4 60.211 3.835 3.835 0 0 1 37.428 67.26" fill="#ffffff" data-fill-palette-color="accent"></path><path d="M11.821 35.463L6.817 33.467C2.675 44.157 2.508 56.389 7.269 67.775L12.202 65.655C8.033 55.646 8.187 44.882 11.821 35.463" fill="#ffffff" data-fill-palette-color="accent"></path><path d="M33.217 12.967L31.097 8.033C19.807 13.018 11.51 22.007 7.157 32.612L12.162 34.608C16.007 25.274 23.305 17.359 33.217 12.967" fill="#ffffff" data-fill-palette-color="accent"></path><path d="M64.254 12.223L66.251 7.218C55.561 3.077 43.328 2.91 31.943 7.67L34.063 12.604C44.071 8.435 54.835 8.588 64.254 12.223" fill="#ffffff" data-fill-palette-color="accent"></path><path d="M35.744 86.188C44.724 89.648 54.985 89.793 64.526 85.825L49.673 51.263zM46.19 84.062A3.836 3.836 0 1 1 41.534 77.965 3.836 3.836 0 0 1 46.19 84.062M46.339 72.75A3.835 3.835 0 0 1 52.435 68.095 3.834 3.834 0 1 1 46.339 72.75M58.648 84.2A3.833 3.833 0 0 1 53.273 83.479 3.834 3.834 0 1 1 59.368 78.824 3.833 3.833 0 0 1 58.648 84.2" fill="#ffffff" data-fill-palette-color="accent"></path><path d="M56.498 43.198L91.059 28.346C86.868 18.9 79.323 11.943 70.427 8.273zM70.74 33.651A3.835 3.835 0 1 1 72.971 28.709 3.833 3.833 0 0 1 70.74 33.651M85.238 25.142A3.836 3.836 0 1 1 78.06 27.852 3.836 3.836 0 0 1 85.238 25.142M74.444 21.755A3.834 3.834 0 0 1 69.501 19.524 3.834 3.834 0 1 1 76.676 16.812 3.834 3.834 0 0 1 74.444 21.755" fill="#ffffff" data-fill-palette-color="accent"></path><path d="M92.75 27.619L97.684 25.499C92.7 14.208 83.711 5.912 73.105 1.559L71.109 6.563C80.443 10.409 88.358 17.707 92.75 27.619" fill="#ffffff" data-fill-palette-color="accent"></path><path d="M85.785 63.975C89.246 54.995 89.39 44.734 85.423 35.193L50.861 50.044zM76.314 42.001A3.835 3.835 0 0 1 81.451 40.256 3.836 3.836 0 1 1 76.314 42.001M81.212 52.2A3.836 3.836 0 1 1 77.818 59.08 3.836 3.836 0 0 1 81.212 52.2M70.229 45.673A3.835 3.835 0 1 1 66.841 52.553 3.834 3.834 0 1 1 70.229 45.673" fill="#ffffff" data-fill-palette-color="accent"></path><path d="M65.372 85.461C74.817 81.27 81.774 73.726 85.444 64.83L50.52 50.898zM74.408 63.249A3.836 3.836 0 1 1 77.144 70.418 3.836 3.836 0 0 1 74.408 63.249M62.501 59.579A3.833 3.833 0 0 1 67.451 61.798 3.834 3.834 0 1 1 60.285 64.53 3.835 3.835 0 0 1 62.501 59.579M66.103 71.834A3.837 3.837 0 0 1 68.839 79.003 3.837 3.837 0 0 1 66.103 71.834" fill="#ffffff" data-fill-palette-color="accent"></path><path d="M35.062 87.896L33.066 92.901C43.755 97.043 55.988 97.211 67.374 92.449L65.254 87.515C55.245 91.684 44.48 91.53 35.062 87.896" fill="#ffffff" data-fill-palette-color="accent"></path><path d="M33.944 14.659C24.498 18.85 17.542 26.394 13.872 35.29L48.796 49.22zM25.689 36.676A3.837 3.837 0 1 1 22.902 29.526 3.837 3.837 0 0 1 25.689 36.676M37.624 40.255A3.836 3.836 0 1 1 34.836 33.108 3.836 3.836 0 0 1 37.624 40.255M33.93 28.027A3.836 3.836 0 1 1 31.142 20.88 3.836 3.836 0 0 1 33.93 28.027" fill="#ffffff" data-fill-palette-color="accent"></path><path d="M66.099 87.152L68.219 92.086C79.509 87.103 87.806 78.113 92.159 67.508L87.154 65.512C83.308 74.846 76.011 82.761 66.099 87.152" fill="#ffffff" data-fill-palette-color="accent"></path><path d="M87.113 34.465C91.281 44.473 91.129 55.238 87.495 64.656L92.5 66.653C96.641 55.963 96.809 43.73 92.048 32.345z" fill="#ffffff" data-fill-palette-color="accent"></path><path d="M13.53 36.145C10.07 45.125 9.925 55.386 13.893 64.928L48.455 50.076zM22.148 58.113A3.837 3.837 0 1 1 15.366 54.523 3.837 3.837 0 0 1 22.148 58.112M22.736 46.182A3.836 3.836 0 1 1 15.956 42.594 3.836 3.836 0 0 1 22.735 46.182M33.522 53.024A3.836 3.836 0 1 1 26.74 49.437 3.836 3.836 0 0 1 33.522 53.024" fill="#ffffff" data-fill-palette-color="accent"></path><path d="M63.571 13.932C54.592 10.472 44.331 10.327 34.79 14.295L49.642 48.857zM51.848 18.379A3.836 3.836 0 1 1 58.792 21.639 3.837 3.837 0 1 1 51.848 18.379M52.475 32.741A3.835 3.835 0 1 1 45.531 29.482 3.835 3.835 0 0 1 52.475 32.741M45.005 16.522A3.836 3.836 0 1 1 41.743 23.467 3.836 3.836 0 0 1 45.005 16.522" fill="#ffffff" data-fill-palette-color="accent"></path><path d="M12.565 66.501L7.631 68.621C12.615 79.91 21.605 88.208 32.21 92.561L34.206 87.554C24.873 83.71 16.957 76.413 12.565 66.501" fill="#ffffff" data-fill-palette-color="accent"></path></svg></g></svg></g><g></g></svg></g></svg></g></svg></g></svg></g><defs></defs></svg><rect width="320" height="360" fill="none" stroke="none" visibility="hidden"></rect></g></svg></g></svg>